<svg xmlns="http://www.w3.org/2000/svg" version="1.1" xmlns:xlink="http://www.w3.org/1999/xlink" width="1500" height="571" viewBox="0 0 1500 571"><svg xml:space="preserve" width="1500" height="571" data-version="2" data-id="lg_2drMAFv5U0YvCZKRDt" viewBox="0 0 571 571" x="0" y="0"><rect width="100%" height="100%" fill="transparent"></rect><rect width="461.41" height="461.41" x="-230.7" y="-230.7" stroke="#fff" stroke-width="1.5" paint-order="stroke" rx="0" ry="0" transform="translate(285.5 285.5)scale(1.2098)"></rect><path fill="#fff" d="m249.19 363.05-58.33-149.83h19.34l34.15 87.32q1.61 4.19 2.98 7.98 1.37 3.78 2.66 8.78 1.29-5 2.66-8.78 1.37-3.79 2.98-7.98l33.99-87.32h18.21l-58.32 149.83Z" paint-order="stroke"></path><rect width="116.97" height="149.83" x="-58.48" y="-74.92" fill="none" rx="0" ry="0" transform="translate(249.84 288.63)"></rect><path fill="#fff" d="M340.54 360.15q-7.42 0-15.87-2.82-8.46-2.82-14.58-9.42l4.83-19.01q4.51 7.57 11.6 12t15.14 4.43q7.74 0 11.6-3.79 3.87-3.78 3.87-9.26 0-6.28-4.11-9.18-4.11-2.9-7.33-4.03l-13.05-5q-3.54-1.45-8.54-4.26-4.99-2.82-8.7-8.14-3.7-5.32-3.7-13.86 0-7.73 3.7-14.17 3.71-6.45 10.47-10.23 6.77-3.79 15.95-3.79 7.25 0 15.15 2.58 7.89 2.57 13.37 8.7l-4.83 19.01q-3.87-7.09-10.47-11.28-6.61-4.19-13.7-4.19-6.6 0-10.39 3.71-3.79 3.7-3.79 8.54 0 3.86 2.58 6.92t7.73 5l13.05 4.99q3.55 1.29 8.79 4.19 5.23 2.9 9.26 8.38 4.03 5.48 4.03 14.82 0 13.05-9.11 21.11-9.1 8.05-22.95 8.05" paint-order="stroke"></path><rect width="62.51" height="100.53" x="-31.25" y="-50.27" fill="none" rx="0" ry="0" transform="translate(341.84 310.38)"></rect></svg></svg>